<svg xmlns="http://www.w3.org/2000/svg" width="400" height="400" fill="none" xmlns:v="https://vecta.io/nano"><path fill="#032541" d="M0 0h400v400H0z"/><g clip-path="url(#B)"><path d="M133.402 200a28.01 28.01 0 0 1 2.131-10.761 28.08 28.08 0 0 1 6.103-9.126c2.617-2.613 5.724-4.686 9.145-6.1s7.088-2.142 10.792-2.142h-.16c3.704 0 7.371.728 10.792 2.142s6.528 3.487 9.145 6.1a28.08 28.08 0 0 1 6.103 9.126A28.01 28.01 0 0 1 189.584 200c0 7.448-2.968 14.59-8.251 19.856s-12.448 8.225-19.92 8.225h.16c-7.471 0-14.637-2.958-19.92-8.225s-8.251-12.408-8.251-19.856zm131.797-49.79h52.451c7.471 0 14.636-2.958 19.919-8.225s8.251-12.408 8.251-19.856a27.99 27.99 0 0 0-2.13-10.761c-1.413-3.412-3.487-6.514-6.104-9.126s-5.724-4.686-9.145-6.1A28.25 28.25 0 0 0 317.65 94h-52.451a28.25 28.25 0 0 0-10.791 2.142c-3.421 1.414-6.529 3.487-9.145 6.1s-4.691 5.714-6.104 9.126a27.99 27.99 0 0 0-2.13 10.761c0 7.448 2.968 14.59 8.251 19.856s12.448 8.225 19.919 8.225zM85.049 305.952h101.872c7.472 0 14.637-2.958 19.92-8.224s8.251-12.409 8.251-19.857a28.01 28.01 0 0 0-2.131-10.761 28.08 28.08 0 0 0-6.103-9.126c-2.617-2.613-5.724-4.686-9.145-6.1s-7.088-2.142-10.792-2.142H85.049a28.25 28.25 0 0 0-10.791 2.142 28.17 28.17 0 0 0-9.145 6.1 28.07 28.07 0 0 0-6.103 9.126c-1.413 3.413-2.137 7.069-2.131 10.761 0 7.448 2.968 14.59 8.251 19.857s12.448 8.224 19.92 8.224zm133.789-77.871h9.964l23.276-56.21h-13.312l-14.188 36.87h-.16l-13.95-36.87H196.28l22.558 56.21zm51.734 0h12.435v-56.21h-12.435v56.21zm35.392 0h39.777v-11.394h-27.342v-11.443h24.472v-11.442h-24.472v-10.489h25.907v-11.442h-38.262l-.08 56.21zM68.102 150.258h12.435v-45.292h16.102V94H52v10.966h16.102v45.292zm46.074 0h12.435v-24.315h24.073v24.315h12.435V94h-12.435v20.978h-24.153V94h-12.355v56.258zm65.763 0h39.856v-11.442h-27.501v-11.443h24.472v-11.442h-24.472v-10.489h25.907V94h-38.262v56.258zM53.993 228.129h12.355v-43.147h.159l14.348 43.147h9.406l14.827-43.147h.159v43.147h12.435v-56.258H98.951l-13.073 36.711h-.159l-12.993-36.711H53.913l.08 56.258zM232.692 306h20.183a39.32 39.32 0 0 0 12.053-1.828c3.678-1.145 7.111-2.961 10.124-5.355a26.03 26.03 0 0 0 6.966-8.741 26.8 26.8 0 0 0 2.742-12.046 29.32 29.32 0 0 0-2.678-13.111 24 24 0 0 0-7.206-8.788c-3.218-2.3-6.866-3.932-10.729-4.8-4.208-1.048-8.528-1.581-12.866-1.589h-18.668l.079 56.258zm12.451-44.816h7.334c2.515-.009 5.02.323 7.445.986a18.65 18.65 0 0 1 6.186 2.987c1.765 1.34 3.195 3.07 4.177 5.054 1.095 2.235 1.641 4.697 1.594 7.183a18.9 18.9 0 0 1-1.594 8.073 13.82 13.82 0 0 1-4.257 5.308 17.35 17.35 0 0 1-6.377 2.909c-2.614.6-5.289.893-7.971.874h-6.616l.079-33.374zM302.76 306h23.116a36.97 36.97 0 0 0 7.541-.795 21.34 21.34 0 0 0 6.807-2.622 15.01 15.01 0 0 0 4.943-4.767 13.52 13.52 0 0 0 1.913-7.438 14.5 14.5 0 0 0-.877-5.085 12.38 12.38 0 0 0-2.503-4.164 13.37 13.37 0 0 0-3.906-2.94 15.97 15.97 0 0 0-5.07-1.589v-.159a14.8 14.8 0 0 0 7.063-4.482 11.77 11.77 0 0 0 2.662-7.946 13.22 13.22 0 0 0-1.833-7.39c-1.187-1.837-2.836-3.333-4.783-4.338a20.62 20.62 0 0 0-6.648-2.066c-2.446-.335-4.912-.505-7.381-.509H302.76V306zm12.435-45.769h8.449c.989.005 1.976.096 2.95.27.946.164 1.86.475 2.71.922.796.423 1.471 1.041 1.961 1.796.533.868.793 1.875.749 2.892a5.75 5.75 0 0 1-.67 2.861 5.32 5.32 0 0 1-1.801 1.907c-.766.49-1.613.84-2.503 1.033a13.02 13.02 0 0 1-2.838.317h-9.151l.144-11.998zm0 22.487h9.406c1.093.006 2.185.085 3.268.239 1.097.149 2.169.443 3.188.874a6.37 6.37 0 0 1 2.519 1.859c.686.915 1.035 2.037.989 3.178.04 1.082-.219 2.155-.749 3.099a6.37 6.37 0 0 1-1.961 2.066c-.809.537-1.712.914-2.663 1.113a14.3 14.3 0 0 1-2.917.318h-11.16l.08-12.746z" fill="url(#A)"/></g><defs><linearGradient id="A" x1="52" y1="200" x2="347" y2="200" gradientUnits="userSpaceOnUse"><stop stop-color="#90cea1"/><stop offset=".56" stop-color="#3cbec9"/><stop offset="1" stop-color="#00b3e5"/></linearGradient><clipPath id="B"><path fill="#fff" transform="translate(52 94)" d="M0 0h295v212H0z"/></clipPath></defs></svg>